<svg width="77" height="56" viewBox="0 0 77 56" fill="none" xmlns="http://www.w3.org/2000/svg">
<path fill-rule="evenodd" clip-rule="evenodd" d="M38.2747 0.000410911C38.1459 0.000133672 38.0154 0 37.8834 0C30.8457 0 27.3886 0.617342 23.6845 2.59283C18.005 5.55607 13.5601 9.38359 11.7081 12.8407C10.5969 14.8162 10.9673 15.8039 13.4367 17.7794C17.0173 20.7427 19.857 25.9283 21.2152 31.7314L22.0795 35.8058H38.0069C38.0967 35.8058 38.1859 35.8058 38.2747 35.8058V0.000410911Z" fill="#EC4040"/>
<path fill-rule="evenodd" clip-rule="evenodd" d="M38.2751 0.000410907C38.4039 0.00013367 38.5344 0 38.6664 0C45.7041 0 49.1612 0.617342 52.8653 2.59283C58.5448 5.55607 62.9897 9.38359 64.8417 12.8407C65.9529 14.8162 65.5825 15.8039 63.1131 17.7794C59.5326 20.7427 56.6928 25.9283 55.3346 31.7314L54.4704 35.8058H38.5429C38.4531 35.8058 38.3639 35.8058 38.2751 35.8058V0.000410907Z" fill="#EC4040"/>
<path fill-rule="evenodd" clip-rule="evenodd" d="M38.2754 37.9863C37.2246 37.9917 36.1145 37.9974 34.9415 38.0036L20.3723 38.1271L19.3845 32.2006C18.2733 25.1629 14.8162 19.9773 9.87746 17.3844C9.78076 17.3337 9.68435 17.2826 9.58809 17.2316C7.58824 16.1727 5.64991 15.1463 2.46937 17.3844C0.74081 18.4957 0 20.7181 0 22.817C0 26.6446 1.72856 28.6201 5.43261 29.2374C7.90197 29.7313 8.51931 31.8302 9.01319 41.2138C9.13665 44.3005 10.0009 46.1526 11.7295 47.0168C13.2111 47.7576 14.0754 49.2393 13.8284 50.7209C13.705 52.079 14.0754 53.9311 14.6927 54.9188C16.6682 57.2657 19.7549 55.4136 19.7549 52.9438V48.8689H38.2752H38.2754V37.9863Z" fill="#15406B"/>
<path fill-rule="evenodd" clip-rule="evenodd" d="M38.2745 37.9863C39.3252 37.9917 40.4353 37.9974 41.6083 38.0036L56.1775 38.1271L57.1653 32.2006C58.2765 25.1629 61.7336 19.9773 66.6723 17.3844C66.769 17.3337 66.8655 17.2826 66.9617 17.2316C68.9616 16.1727 70.8999 15.1463 74.0804 17.3844C75.809 18.4957 76.5498 20.7181 76.5498 22.817C76.5498 26.6446 74.8212 28.6201 71.1172 29.2374C68.6478 29.7313 68.0305 31.8302 67.5366 41.2138C67.4132 44.3005 66.5489 46.1526 64.8203 47.0168C63.3387 47.7576 62.4744 49.2393 62.7214 50.7209C62.8448 52.079 62.4744 53.9311 61.8571 54.9188C59.8816 57.2657 56.7949 55.4136 56.7949 52.9438V48.8689H38.2746H38.2745V37.9863Z" fill="#15406B"/>
</svg>
